<svg xmlns="http://www.w3.org/2000/svg" xmlns:xlink="http://www.w3.org/1999/xlink" width="294" height="68" viewBox="0 0 294 68">
    <defs>
        <path id="a" d="M.288.42h51.255v47.45H.288z"/>
    </defs>
    <g fill="none" fill-rule="evenodd">
        <path fill="#FFF" d="M57 52.255s-12.995-.387-30.485-9.85c-11.909-6.442-19.8-15.893-22.141-19.07-.345-.467-1.147-.44-1.437.045a6.3 6.3 0 0 0-.357.662A34.386 34.386 0 0 0 .003 36.587c-.03 1.733.166 2.692 1.925 3.954 6.478 4.648 11.448 7.81 20.256 10.668C34.238 55.121 53.38 54.387 57 52.255"/>
        <g transform="translate(6)">
            <mask id="b" fill="#fff">
                <use xlink:href="#a"/>
            </mask>
            <path fill="#FFF" d="M18.853 34.312c12.764 10.093 23.949 12.676 32.69 13.558 0 0-13.146-8.854-23.442-19.143C17.058 17.69 13.715 5.747 12.799 1.015 12.706.534 12.071.26 11.586.52a60.521 60.521 0 0 0-9.332 6.182C.44 8.166-.282 10.528.786 12.65c2.635 5.24 7.497 13.303 18.067 21.662" mask="url(#b)"/>
        </g>
        <path fill="#FFF" d="M55 57.319s-13.843 2.97-24.437 2.103c-9.268-.76-16.97-4.382-20.276-6.3-.578-.336-1.344.064-1.284.68a.742.742 0 0 0 .008.055c.346 2.468.865 3.861 1.908 6.12 1.342 2.9 4.705 6.125 7.928 7.077 3.09.912 6.524 1.271 11.215.597C43.77 65.682 53.917 59.164 55 57.32M76 14h3.595v45.779H108V63H76zM129.283 46.13V63h-3.566V46.13L106 14h3.915l17.69 28.84L145.295 14H149zM175.533 43.82c5.215 0 9.197-1.156 11.945-3.466 2.748-2.31 4.121-5.588 4.121-9.834 0-4.245-1.373-7.524-4.121-9.836-2.748-2.308-6.73-3.464-11.945-3.464h-13.971v26.6h13.97zM191.948 63l-11.665-16.38c-1.724.234-3.307.35-4.75.35h-13.971V63H158V14h17.533c6.147 0 10.967 1.46 14.46 4.376 3.492 2.917 5.239 6.964 5.239 12.144 0 3.874-.99 7.13-2.97 9.764-1.978 2.638-4.808 4.493-8.487 5.566L196 63h-4.052zM238.673 46.2l-12.708-28.28-12.637 28.28h25.345zm1.313 3.01h-28.04L205.8 63H202l22.239-49h3.522L250 63h-3.799l-6.215-13.79zM289.807 63l-16.842-22.68L256.193 63H252l18.799-25.27L253.328 14h4.194l15.584 21.07L288.689 14h3.983l-17.47 23.66L294 63z"/>
    </g>
</svg>
