<?xml version="1.0" standalone="no"?>
<!DOCTYPE svg PUBLIC "-//W3C//DTD SVG 20010904//EN"
 "http://www.w3.org/TR/2001/REC-SVG-20010904/DTD/svg10.dtd">
<svg version="1.0" xmlns="http://www.w3.org/2000/svg"
 width="225.000000pt" height="225.000000pt" viewBox="0 0 225.000000 225.000000"
 preserveAspectRatio="xMidYMid meet">
<metadata>
Created by potrace 1.14, written by Peter Selinger 2001-2017
</metadata>
<g transform="translate(0.000000,225.000000) scale(0.100000,-0.100000)"
fill="#000000" stroke="none">
<path d="M0 1125 l0 -1125 1125 0 1125 0 0 1125 0 1125 -1125 0 -1125 0 0
-1125z m876 808 c35 -161 123 -354 225 -498 125 -175 357 -384 719 -648 25
-18 25 -18 -36 -12 -100 9 -260 52 -373 100 -195 83 -358 193 -535 365 -128
125 -219 241 -282 366 -44 86 -46 93 -35 127 8 22 33 54 63 81 53 47 213 146
235 146 7 0 15 -12 19 -27z m-315 -629 c153 -179 371 -344 599 -453 145 -69
356 -141 485 -166 50 -9 106 -20 125 -24 l35 -8 -42 -12 c-76 -21 -280 -31
-438 -20 -313 21 -542 95 -784 256 -149 100 -151 102 -151 192 0 121 53 321
85 321 7 0 46 -39 86 -86z m157 -693 c83 -42 223 -86 335 -106 155 -28 531
-11 707 31 l25 6 -23 -25 c-29 -31 -195 -117 -292 -152 -259 -92 -514 -109
-643 -43 -91 46 -172 154 -196 259 -16 70 -1 75 87 30z"/>
</g>
</svg>
